<svg width="21" height="20" viewBox="0 0 21 20" fill="none" xmlns="http://www.w3.org/2000/svg">
<path d="M4.66797 16.849C4.91548 16.0252 5.42194 15.3032 6.11222 14.79C6.80249 14.2768 7.63982 13.9997 8.49997 14H12.5C13.3612 13.9997 14.1996 14.2774 14.8904 14.7918C15.5811 15.3062 16.0874 16.0298 16.334 16.855M19.5 10C19.5 14.9706 15.4706 19 10.5 19C5.52944 19 1.5 14.9706 1.5 10C1.5 5.02944 5.52944 1 10.5 1C15.4706 1 19.5 5.02944 19.5 10ZM13.5 8C13.5 9.65685 12.1569 11 10.5 11C8.84315 11 7.5 9.65685 7.5 8C7.5 6.34315 8.84315 5 10.5 5C12.1569 5 13.5 6.34315 13.5 8Z" stroke="#0F0F10" stroke-opacity="0.5" stroke-width="1.5" stroke-linecap="round" stroke-linejoin="round"/>
</svg>
